<svg xmlns="http://www.w3.org/2000/svg" width="31.829" height="31.83" viewBox="0 0 31.829 31.83">
  <g id="member_icon_dark" transform="translate(-299.29 -67.221)">
    <g id="Group_7505" data-name="Group 7505" transform="translate(299.39 67.321)">
      <path id="Path_198" data-name="Path 198" d="M315.2,98.951A15.815,15.815,0,1,1,331.02,83.136,15.833,15.833,0,0,1,315.2,98.951Zm0-30.9a15.088,15.088,0,1,0,15.088,15.088A15.105,15.105,0,0,0,315.2,68.048Z" transform="translate(-299.39 -67.321)" fill="#57646e" stroke="#fff" stroke-width="0.2"/>
    </g>
    <g id="Group_7506" data-name="Group 7506" transform="translate(303.816 86.331)">
      <path id="Path_199" data-name="Path 199" d="M320.765,129.866a13.107,13.107,0,0,1-11.7-6.474.427.427,0,0,1,.09-.6,7.235,7.235,0,0,1,2.724-1.623,21.239,21.239,0,0,1,4.665-1.092,31.677,31.677,0,0,1,7.14-.079,19.057,19.057,0,0,1,5.222,1.179,7.213,7.213,0,0,1,2.712,1.642.407.407,0,0,1,.068.566,13.107,13.107,0,0,1-6.455,5.555A12.093,12.093,0,0,1,320.765,129.866Z" transform="translate(-308.976 -119.836)" fill="#57646e"/>
    </g>
    <g id="Group_7507" data-name="Group 7507" transform="translate(310.063 74.512)">
      <path id="Path_200" data-name="Path 200" d="M332.747,84.623a5.145,5.145,0,1,1-5.159,5A5.124,5.124,0,0,1,332.747,84.623Z" transform="translate(-327.587 -84.623)" fill="#57646e"/>
    </g>
  </g>
</svg>
