<svg xmlns="http://www.w3.org/2000/svg" width="17" height="16.261" viewBox="0 0 17 16.261">
  <g id="enter" transform="translate(0 -1)">
    <g id="Group_7593" data-name="Group 7593" transform="translate(0 8.76)">
      <path id="Path_2118" data-name="Path 2118" d="M11.476,12.24H.37a.37.37,0,1,1,0-.74H11.476a.37.37,0,1,1,0,.74Z" transform="translate(0 -11.5)" fill="#fff"/>
    </g>
    <g id="Group_7594" data-name="Group 7594" transform="translate(8.126 5.799)">
      <path id="Path_2119" data-name="Path 2119" d="M11.37,14.164a.37.37,0,0,1-.262-.632l2.7-2.7-2.7-2.7a.37.37,0,0,1,.523-.523l2.962,2.962a.37.37,0,0,1,0,.523l-2.962,2.962A.372.372,0,0,1,11.37,14.164Z" transform="translate(-11 -7.501)" fill="#fff"/>
    </g>
    <g id="Group_7595" data-name="Group 7595" transform="translate(1.184 1)">
      <path id="Path_2120" data-name="Path 2120" d="M9.286,17.261a8.141,8.141,0,0,1-7.665-5.42.37.37,0,1,1,.7-.246,7.393,7.393,0,1,0,0-4.928.37.37,0,1,1-.7-.246,8.13,8.13,0,1,1,7.665,10.84Z" transform="translate(-1.599 -1)" fill="#fff"/>
    </g>
  </g>
</svg>
