<svg xmlns="http://www.w3.org/2000/svg" width="24.989" height="33.639" viewBox="0 0 24.989 33.639">
  <g id="document" transform="translate(-11 -2)">
    <path id="Path_2108" data-name="Path 2108" d="M61.481,43.374A.481.481,0,0,1,61,42.893V41.481a.481.481,0,0,1,.961,0v1.413A.481.481,0,0,1,61.481,43.374Z" transform="translate(-25.972 -20.258)" fill="#57646e"/>
    <path id="Path_2109" data-name="Path 2109" d="M35.508,35.639H11.481A.481.481,0,0,1,11,35.158V2.481A.481.481,0,0,1,11.481,2h17.3a.48.48,0,0,1,.34.141l6.728,6.728a.481.481,0,0,1,.141.34v8.645a.481.481,0,1,1-.961,0V9.407L28.582,2.961H11.961V34.678H35.028v-3.9a.481.481,0,1,1,.961,0v4.383A.481.481,0,0,1,35.508,35.639Z" fill="#57646e"/>
    <path id="Path_2110" data-name="Path 2110" d="M61.481,53.314A.481.481,0,0,1,61,52.833V51.421a.481.481,0,0,1,.961,0v1.413A.481.481,0,0,1,61.481,53.314Z" transform="translate(-25.972 -25.422)" fill="#57646e"/>
    <path id="Path_2111" data-name="Path 2111" d="M54.208,9.689H47.481A.481.481,0,0,1,47,9.208V2.481a.481.481,0,1,1,.961,0V8.728h6.247a.481.481,0,1,1,0,.961Z" transform="translate(-18.7)" fill="#57646e"/>
    <path id="Path_2112" data-name="Path 2112" d="M35.78,35.961h-17.3a.481.481,0,0,1,0-.961h17.3a.481.481,0,0,1,0,.961Z" transform="translate(-3.636 -17.142)" fill="#57646e"/>
    <path id="Path_2113" data-name="Path 2113" d="M35.78,25.961h-17.3a.481.481,0,1,1,0-.961h17.3a.481.481,0,1,1,0,.961Z" transform="translate(-3.636 -11.947)" fill="#57646e"/>
    <path id="Path_2114" data-name="Path 2114" d="M29.053,15.961H18.481a.481.481,0,1,1,0-.961H29.053a.481.481,0,1,1,0,.961Z" transform="translate(-3.636 -6.753)" fill="#57646e"/>
    <path id="Path_2115" data-name="Path 2115" d="M36.042,60.564H25.2a.481.481,0,0,1-.481-.481V57.866a.481.481,0,0,1,.961,0V59.6h9.882V57.866a.481.481,0,1,1,.961,0v2.218A.481.481,0,0,1,36.042,60.564Z" transform="translate(-7.126 -28.77)" fill="#d4000b"/>
    <path id="Path_2116" data-name="Path 2116" d="M36.481,50.152A.481.481,0,0,1,36,49.672V42.481a.481.481,0,0,1,.961,0v7.191A.481.481,0,0,1,36.481,50.152Z" transform="translate(-12.986 -20.778)" fill="#d4000b"/>
    <path id="Path_2117" data-name="Path 2117" d="M34.054,55.5a.481.481,0,0,1-.34-.141L31.47,53.113a.481.481,0,0,1,.68-.68l1.9,1.905,1.9-1.905a.481.481,0,0,1,.68.68l-2.245,2.245A.481.481,0,0,1,34.054,55.5Z" transform="translate(-10.56 -26.124)" fill="#d4000b"/>
  </g>
</svg>
