<svg id="Group_5907" data-name="Group 5907" xmlns="http://www.w3.org/2000/svg" xmlns:xlink="http://www.w3.org/1999/xlink" width="12.737" height="19" viewBox="0 0 12.737 19">
  <defs>
    <clipPath id="clip-path">
      <rect id="Rectangle_8199" data-name="Rectangle 8199" width="12.737" height="19" fill="#fff"/>
    </clipPath>
  </defs>
  <g id="Group_5902" data-name="Group 5902" transform="translate(0 0)" clip-path="url(#clip-path)">
    <path id="Path_207" data-name="Path 207" d="M12.665,5.4A6.325,6.325,0,0,0,5.15.119,6.24,6.24,0,0,0,.23,7.83a117.386,117.386,0,0,0,5.9,10.949c.2.3.29.291.487,0,1.109-1.659,5.19-8.74,5.832-10.746a5.491,5.491,0,0,0,.22-2.627M6.315,8.864A2.825,2.825,0,0,1,6.4,3.215a2.825,2.825,0,1,1-.089,5.649" transform="translate(0 0)" fill="#fff"/>
  </g>
</svg>
