<svg xmlns="http://www.w3.org/2000/svg" width="501.338" height="35.173" viewBox="0 0 501.338 35.173">
  <g id="Group_7628" data-name="Group 7628" transform="translate(-356.813 -26.943)">
    <path id="Path_16391" data-name="Path 16391" d="M418.922,60.2q-.5-.813-2.3-.813a6.391,6.391,0,0,0-3.209.828,6.132,6.132,0,0,0-2.316,2.314,3.006,3.006,0,0,0-.528,1.771,1.283,1.283,0,0,0,.694,1.035,3.974,3.974,0,0,0,1.824.327,6.333,6.333,0,0,0,2.216-.378,6.258,6.258,0,0,0,1.838-1.06,6.41,6.41,0,0,0,1.432-1.745Q419.423,61.012,418.922,60.2Zm-2.544,2.254a4.025,4.025,0,0,1-1.213,1.419,2.456,2.456,0,0,1-1.341.4q-.7,0-.873-.4t.36-1.328a3.736,3.736,0,0,1,1.18-1.336,2.443,2.443,0,0,1,1.317-.4q.7,0,.886.4T416.377,62.452ZM438.686,59.5l-3.5,6.054h2.233l3.5-6.054Zm8.379,0-1.939,3.359-.784-3.359H442.27l-3.5,6.054h2.086l1.928-3.341.78,3.341h2.086l3.5-6.054Zm-11.048,0-2.708,3.361.829-3.361h-2.093l-3.076,3.389,1.192-3.389h-2.109l-1.893,6.054h2.182l3.459-3.812-.94,3.812h2.178l5.08-6.054Zm-9.232,1.682a1.36,1.36,0,0,0,.233-.981.765.765,0,0,0-.558-.551,5.291,5.291,0,0,0-1.486-.149h-3.7l-3.5,6.054h2.233l1.418-2.456h.2a.676.676,0,0,1,.462.14.714.714,0,0,1,.132.466l.112,1.85h2.511l-.065-1.753a1.233,1.233,0,0,0-.093-.376.919.919,0,0,0-.171-.318,1.275,1.275,0,0,0-.448-.223,4.792,4.792,0,0,0,.916-.24,4.141,4.141,0,0,0,1.041-.592A3.015,3.015,0,0,0,426.784,61.177Zm-2.318.149a1.086,1.086,0,0,1-.343.353,1.143,1.143,0,0,1-.468.19,4.812,4.812,0,0,1-.633.083h-.931l.714-1.236h.97q.6,0,.733.158T424.466,61.326Zm1.209-4.5.557.014.295-.473,5.494-9.977,8.71.023.584,0,.281-.512,6.065-9.815h-2.016l-5.366,8.364-8.587-.02-.547,0-.29.465-5.731,9.979-13.689.023-.563-.013-.294.481-6.227,10.343,2.412-.036,5.206-8.823Z" transform="translate(-36.289 -6.984)" fill="#003288"/>
    <g id="Group_7626" data-name="Group 7626" transform="translate(422.652 26.943)">
      <path id="Path_16392" data-name="Path 16392" d="M637.715,47.758h-1.648V42.028h24.1v3.257a2.188,2.188,0,0,1-1.568,2.348l-.638,1.464h3.162v2.6H635.084V49.1H638.3Zm23.415-9.28v2.4H635.2v-2.4Zm-6.046-2.928h.792q.924,0,.924-.883V27.145h3.578v8.28q0,2.108-2.258,2.108H635.86V27.145h3.579v8.406h1.745v-.917H640.3v-1.6h.887V32.12H640.3v-1.6h.887V29.488H640.3v-1.6h.887v-.934h3.372v.934h1.065v1.6h-1.065v1.035h1.065v1.6h-1.065v.917h1.065v1.6h-1.065v.917h1.656V26.943h3.9v8.608h1.6v-.917h-.887v-1.6h.887V32.12h-.887v-1.6h.887V29.488h-.887v-1.6h.887v-.934h3.371v.934h.946v1.6h-.946v1.035h.946v1.6h-.946v.917h.946v1.6h-.946Zm-.014,10a.559.559,0,0,0,.664-.627v-.7H640.5v1.331ZM653.318,49.1l.585-1.36H642.371l.585,1.36Z" transform="translate(-635.084 -26.943)" fill="#003288"/>
      <path id="Path_16393" data-name="Path 16393" d="M772.287,48.574h-1.063a1.51,1.51,0,0,1-1.7-1.484l-.319-4.26h2.1l.106,2.019q.053.531.505.53h.372V41.624H769.5V38.607h2.79V37.27H769.5V35.453h-.638v-3.2h.027a.771.771,0,0,0,.77-.5l.824-2.927h8.262v.076l.9,2.876q.079.48.691.479h.106v3.2H779.7V37.27h-2.976v1.337h2.87v3.017h-2.87V45.38h.372q.452.025.505-.48l.213-2.07h2.1l-.4,3.732q-.159,2.012-1.754,2.012h-1.036V49.7h3.4v3.4H769.071V49.7h3.215Zm3.734-14.31a1.415,1.415,0,0,1-.159-.53l-.346-1.514h-1.86l-.345,1.54-.212.505Zm9.545,15.01q-.026.631.665.631h.93V53.1h-3.427q-2.6-.026-2.6-2.471V28.818h13.042v9.8q-.026,2.47-2.6,2.47h-6Zm4.17-15.665v-1.6h-4.17v1.6Zm-4.17,2.9V37.9h3.506a.56.56,0,0,0,.664-.632v-.758ZM792.2,49.092a.834.834,0,0,0,.93.606h1.674v3.4H790.98a2.661,2.661,0,0,1-2.683-2.268L785.905,42.1h4.224l.93,3.155a.726.726,0,0,0,.478-.278l.531-2.675h2.737l-.85,4.745a2.334,2.334,0,0,1-2.019,1.161Z" transform="translate(-737.208 -28.374)" fill="#003288"/>
      <path id="Path_16394" data-name="Path 16394" d="M912.161,28.244v3.312h-9.777V28.244h2.79v-1.3h4.436v1.3ZM902.779,48.27V41.021h9.109V49.2q-.026,2.466-2.6,2.467h-6.506v-3.4Zm9.168-15.737v3.194h-9.141V32.533Zm0,4.14v3.194h-9.141V36.673ZM907.32,48.267q.664,0,.664-.628V44.422h-1.3v3.845ZM926.67,35.8a1.04,1.04,0,0,0,1.143.756h.5v3.4h-.638V43.95A2.174,2.174,0,0,1,926.4,46.2l-.638,2.274h2.551v3.194H912.9V48.474h2.525l-.558-2.042h-1.09V39.779h-.691l-.585-3.4h.691q1.2,0,1.408-.58l.346-.983a1.279,1.279,0,0,1-1.17-1.184l-.319-2.52h1.674l.159.706q0,.428.452.428h.16l.691-1.84h-3.376V27.387h7.15v4.231l-.9,2.216H922.1l-1.2-6.689h4.226l.212,1.237h.425q.452,0,.505-.353l.319-.581h1.355l-.346,1.995a1.623,1.623,0,0,1-1.807,1.54l.213,1.237h.239q.452,0,.505-.353l.213-.581h1.249l-.186,2.019a1.622,1.622,0,0,1-1.542,1.513Zm-4.042,1.052H918.3l-.611,1.577-.053.05H923a.765.765,0,0,1-.132-.35Zm-.049,6.6a.561.561,0,0,0,.665-.633V41.494h-5.028v1.952Zm-2.714,5.028h1.461l.585-2.011h-2.6Z" transform="translate(-839.141 -26.943)" fill="#003288"/>
      <path id="Path_16395" data-name="Path 16395" d="M1036.657,45.211V44h-.611l-.638-2.81h2.285a1.186,1.186,0,0,0,1.169-.852l.691-1.278h-4.066v-3.4h5.872l1.275-2.366h-5.979V31.784h-.611l-.638-2.81h1.541a1.133,1.133,0,0,0,.957-.379l.691-1.161h4.437l-1.648,2.664h2.976l1.728-3.155h4.756L1049.12,30.1h6.085l-1.408-2.646h4.437l.638,1.111a1.219,1.219,0,0,0,1.062.53h1.382V31.9h-.957v1.39h-5.818l1.116,2.366h5.765v3.4h-4.171l.744,1.512q.159.53,1.009.529h2.418v2.81h-1.489v5.283q-.026,2.465-2.6,2.465h-4.862l-.585-3.194h2.949q.664,0,.664-.63V45.211h-8.662l-2.391,4.508a2.864,2.864,0,0,1-2.71,1.939h-5.474l-.638-3.194h3.427a1.6,1.6,0,0,0,1.568-.807l1.328-2.446Zm16.9-3.4-1.2-2.75h-8.131l-1.488,2.75Zm-3.72-8.518h-2.471l-1.3,2.366h4.81Z" transform="translate(-940.692 -26.943)" fill="#003288"/>
      <path id="Path_16396" data-name="Path 16396" d="M1176.711,49.114a2.766,2.766,0,0,1-.691,1.69,2.607,2.607,0,0,1-1.992.858h-3.906l-.584-3.4h1.754a1.1,1.1,0,0,0,.771-.278.985.985,0,0,0,.213-.656V42.609l-3.215,1.186V39.782l3.215-1.186v-5.8h-3.215v-3.4h3.215V26.943h4.436v2.449h2.019v3.4h-2.019v4.162l1.913-.706V40.26l-1.913.706Zm3.2-8.336v-3.4h14.481v3.4l-4.757,5.19,1.462,1.612a3.059,3.059,0,0,0,2.1.68H1195v3.4h-3.614a4.466,4.466,0,0,1-3.055-1.111l-1.435-1.54-.771.858a4.238,4.238,0,0,1-3.083,1.792h-3.268l-.584-3.4h1.488a2.452,2.452,0,0,0,2.019-.756l1.355-1.537-3.693-3.981h5.712l.744.831,1.78-2.041Zm1.09-8.586V27.381h12.51v5.109q-.027.629.665.629h.717v3.4h-3q-2.606,0-2.606-2.466V30.782h-4.052v2.973q-.027,2.469-2.607,2.469H1180.1l-.585-3.4h.823A.56.56,0,0,0,1181,32.193Z" transform="translate(-1042.721 -26.943)" fill="#003288"/>
      <path id="Path_16397" data-name="Path 16397" d="M1312.626,49.151l-.771,1.111a4.123,4.123,0,0,1-3.534,1.817h-5.475l-.638-1.8h3.587a1.542,1.542,0,0,0,1.276-.657l.239-.48h-4.146V37.646h24.1v9.017q-.027,2.474-2.6,2.475h-1.488l.266.682a1.411,1.411,0,0,0,1.2.455h3.481v1.8h-6.7a3.161,3.161,0,0,1-2.6-.984l-.85-1.944Zm-2.891-16.976-1.674,2.722a2.759,2.759,0,0,1-2.6,1.714h-2.6l-.638-2.6h.983a1.421,1.421,0,0,0,1.408-.754l.691-1.08Zm.212-4.111v2.81h-6.7v-2.81ZM1322.833,41.2v-.946H1307.6V41.2Zm0,2.632V43H1307.6v.828Zm-15.231,1.8v.917h14.567q.664.025.665-.62v-.3ZM1318.424,34.8a2.759,2.759,0,0,1-2.6,1.843h-4.889l-.638-2.81h2.949a1.468,1.468,0,0,0,1.488-.822l.4-.746h4.756l-.425.714h3.241l.372.535a1.1,1.1,0,0,0,.877.407h3.64v2.81h-4.915a3.469,3.469,0,0,1-2.923-1.452l-.877-1.312Zm-3.174-3.628a2.721,2.721,0,0,1-1.833.591h-2.285l-.637-2.6h.9q.638,0,.85-.746l.478-.97h4.437l-.451.917h10.854v4.229h-3.786v-1.42Z" transform="translate(-1144.367 -27.325)" fill="#003288"/>
      <path id="Path_16398" data-name="Path 16398" d="M1435.194,51.689l-.585-3.41h.186q.664,0,.665-.631V27.771h8.917a.559.559,0,0,0,.665-.627v-.2h4.022v1.162q-.027,2.476-2.61,2.475h-6.765v.946h9.375v3.039q-.027,2.462-2.61,2.462h-6.765v2.948a.722.722,0,0,0,.559-.5l.532-1.616h3.166l-.319,1.183h.824V37.853h3.7v1.186h.9v2.514h-.9v1.065h.8v2.189h-.8V45.96h.8v2.189h-.8v.976h1.116v2.514h-8.805V43h-.769v6.213q-.027,2.475-2.607,2.476Zm4.495-16.849h4.48q.666.025.666-.624v-.5h-5.146Zm4.762,9.967h-.828V45.96h.828Zm0,3.342h-.828v.976h.828Zm0-6.6h-.824v1.065h.824Zm10.359,5.442-.8,2.979a2.582,2.582,0,0,1-2.766,1.717h-1.223l-.637-3.206h.265a.908.908,0,0,0,.957-.682l.186-.808h-.665V31.978h2.473l.532-1.338h-3.351V27.327h10.957V30.64h-2.952l-.532,1.337h3.165V44.513a2.2,2.2,0,0,1-1.037,2.144l.293,1.261q.105.554.877.555h.186v3.194h-2.127a2.563,2.563,0,0,1-2.659-2.135l-.532-2.538Zm1.382-10.588V35.069h-1.833v1.338Zm0,3.756V38.921h-1.833v1.242Zm-1.833,2.514v1.213h1.169q.664.026.664-.619v-.594Z" transform="translate(-1245.441 -26.943)" fill="#003288"/>
      <path id="Path_16399" data-name="Path 16399" d="M1575.327,39.95V52.471h-4.318V27.943h11.771v9.53q-.027,2.477-2.609,2.477Zm3.135-7.482V30.96h-3.135v1.508Zm-3.135,2.81v1.656h2.465a.565.565,0,0,0,.67-.637v-1.02Zm1.834,12.543V41.577h12.421v7.174q-.027,2.467-2.607,2.467h-9.815v-3.4Zm7.433,0q.671.026.671-.628V44.978h-3.786v2.839Zm6.4,4.654-.584-3h.664q.664,0,.665-.631V39.95h-7.335V27.943h11.653V50q-.026,2.474-2.6,2.474Zm.744-21.512h-3.017v1.508h3.017Zm0,4.318h-3.017v1.656h3.017Z" transform="translate(-1349.569 -27.706)" fill="#003288"/>
      <path id="Path_16400" data-name="Path 16400" d="M1706.823,50.637q-.026,2.474-2.6,2.474h-1.727l-.585-3.408h.345q.664,0,.665-.631V28.818h9.76V50.637q-.026,2.474-2.6,2.474h-1.939l-.584-3.408h.558q.664,0,.665-.631v-3.13h-1.952Zm1.952-14.958v-3.46h-1.952v3.46Zm0,6.861v-3.46h-1.952v3.46Zm5.458-8.277a.56.56,0,0,0,.665-.631V28.818h11.86V33.63q-.027.63.655.63h.5v3.4h-2.784q-2.6,0-2.6-2.469V32.219h-3.4V35.2q-.027,2.474-2.607,2.474H1714.1l-.584-3.408Zm-.221,7.951v-3.4h13.525v3.6l-3.906,5.14,1.435,1.663a1.506,1.506,0,0,0,1.143.479h1.833v3.4h-3.959a3.448,3.448,0,0,1-3-1.767l-.133-.152-.345.454a3.854,3.854,0,0,1-3.136,1.464H1714.3l-.585-3.4h1.382a2.932,2.932,0,0,0,2.365-.907l.744-1.058-3.321-4.207h5.287l.559.655,1.408-1.965Z" transform="translate(-1449.498 -28.374)" fill="#003288"/>
      <path id="Path_16401" data-name="Path 16401" d="M1835.947,38.853l-.638-3.408h.372a.915.915,0,0,0,.983-.783l1.833-7.22h4.649l-2.259,8.381h.664V52.08h-4.436V38.853Zm14.014-6.666-1.541,3.049a2.877,2.877,0,0,1-2.737,1.89H1843.4l-.638-3.2h.451a1.537,1.537,0,0,0,1.568-.781l.531-.958Zm-6.385,9.375v-3.4h16.58V49.589q-.026,2.472-2.6,2.472h-3.8l-.585-3.4h1.886q.664,0,.665-.632V41.562h-4.3L1849,50.118a2.537,2.537,0,0,1-2.684,1.943h-2.71l-.638-3.4h1.116a.943.943,0,0,0,.983-.783l1.7-6.315Zm1.5-10.5v-3.4h12.595l2.365,5.355q.345.708.8.707h.611v3.4h-2.391a3.167,3.167,0,0,1-2.9-1.92l-1.807-4.143Z" transform="translate(-1551.336 -27.325)" fill="#003288"/>
      <path id="Path_16402" data-name="Path 16402" d="M1989.558,33.745H1994V49.2q-.027,2.47-2.6,2.47h-7.838l-.585-3.194h5.925q.664,0,.665-.628V46.64h-15.143v5.049h-4.436V37.745h-.638l-.638-3.412h.691a1.524,1.524,0,0,0,1.3-.53l1.569-1.921h-3.483v-3.4h6.3l1.276-1.538h5.718l-1.223,1.538h13.988v3.4h-16.621l-1.463,1.863Zm.005,5.028V36.939h-15.143v1.834Zm0,4.85V41.79h-15.143v1.834Z" transform="translate(-1653.173 -26.943)" fill="#003288"/>
      <path id="Path_16403" data-name="Path 16403" d="M2108.927,52.721h-4.318v-24.4h7.571q2.6.026,2.6,2.473v6.056a2.425,2.425,0,0,1-2.232,2.65,2.362,2.362,0,0,1,2.232,2.65v5.879q-.027,2.473-2.608,2.473h-3.248Zm1.538-15.541V32.351q0-.632-.675-.632h-.863v6.092h.863Q2110.465,37.837,2110.465,37.18Zm-.675,9.918q.675.026.675-.632V41.844q0-.631-.675-.632h-.863V47.1Zm10.612,1.587q-.026.631.665.631h1.2v3.4h-3.582q-2.6-.026-2.6-2.473V28.318h13.368V38.946q-.026,2.475-2.609,2.474H2120.4Zm4.732-15.1v-2.07H2120.4v2.07Zm-4.732,2.81v1.834h4.064q.668.026.668-.628V36.392Zm5.439,8.229a1.068,1.068,0,0,0,.877-.682l.372-1.414h2.949l-.93,3.534a2.923,2.923,0,0,1-2.445,1.439l.425,1.439q.186.378,1.063.378h1.993v3.4h-3.72q-2.471-.026-3.029-1.562l-1.939-8.63h3.8Z" transform="translate(-1756.919 -27.993)" fill="#003288"/>
      <path id="Path_16404" data-name="Path 16404" d="M2243.347,33.529l-2.179,4.494a3.015,3.015,0,0,1-2.843,1.868h-2.179l-.638-3.408h.558a1.648,1.648,0,0,0,1.595-.733l1.249-2.221Zm-6.908,19.57V50.076l9.539-12.924h5.394L2242.018,49.7h12.064q.983,0,.718-1.161l-2.657-4.72h5.181l3.083,5.907q1.143,3.375-2.152,3.376h-21.815Zm3.188-20.88v-3.4h16.421l3.959,6.954q.345.706.8.706h.929v3.4h-2.71a3.165,3.165,0,0,1-2.9-1.915l-3.216-5.745Z" transform="translate(-1856.848 -28.374)" fill="#003288"/>
      <path id="Path_16405" data-name="Path 16405" d="M2389.527,35.224v3.4h-18.494v-3.4Zm1.844,14.512V33.094h-20.115v-3.4h24.551V51.3q-.026,2.47-2.6,2.47h-2.736l-.584-3.4h.824Q2391.371,50.366,2391.372,49.736Zm-19.875-.474V40.872h17.6V50.2q-.026,2.476-2.6,2.476h-15V49.261Zm12.5.01q.663,0,.663-.634V44.273h-8.725v5Z" transform="translate(-1960.308 -29.042)" fill="#003288"/>
    </g>
    <g id="Group_7627" data-name="Group 7627" transform="translate(422.84 54.648)">
      <path id="Path_16406" data-name="Path 16406" d="M635.878,151.8v-7.2h5.915v1.213h-4.17v1.715h3.594v1.213h-3.594V151.8Z" transform="translate(-635.878 -144.469)" fill="#003288"/>
      <path id="Path_16407" data-name="Path 16407" d="M665.426,147.817a3.94,3.94,0,0,1,.394-1.852,3.568,3.568,0,0,1,1.919-1.64,5.558,5.558,0,0,1,1.86-.286,4.5,4.5,0,0,1,3.052.99,3.874,3.874,0,0,1,.009,5.49,4.465,4.465,0,0,1-3.037.988,4.517,4.517,0,0,1-3.061-.983A3.39,3.39,0,0,1,665.426,147.817Zm1.789-.049a2.472,2.472,0,0,0,4.121,1.867,2.469,2.469,0,0,0,.671-1.887,2.4,2.4,0,1,0-4.791.02Z" transform="translate(-658.435 -144.039)" fill="#003288"/>
      <path id="Path_16408" data-name="Path 16408" d="M706.6,151.8v-7.2h3.657a7.412,7.412,0,0,1,2,.194,1.941,1.941,0,0,1,1,.691,1.833,1.833,0,0,1,.376,1.136,1.756,1.756,0,0,1-.565,1.34,2.942,2.942,0,0,1-1.69.666,4,4,0,0,1,.921.6,8.415,8.415,0,0,1,.979,1.168l1.049,1.4h-2.056l-1.254-1.58a10.46,10.46,0,0,0-.921-1.046,1.384,1.384,0,0,0-.525-.3,3.478,3.478,0,0,0-.879-.08h-.354v3Zm1.745-4.155h1.283a7.849,7.849,0,0,0,1.559-.089.938.938,0,0,0,.487-.305.834.834,0,0,0,.176-.542.783.783,0,0,0-.231-.589,1.14,1.14,0,0,0-.654-.283q-.211-.024-1.266-.025h-1.354Z" transform="translate(-689.87 -144.469)" fill="#003288"/>
      <path id="Path_16409" data-name="Path 16409" d="M740.911,151.8l-2.01-7.2h1.793l1.275,4.947,1.569-4.947h2.091l1.5,5.03,1.315-5.03H750.2l-2.081,7.2h-1.876l-1.7-5.384-1.707,5.384Z" transform="translate(-714.526 -144.469)" fill="#003288"/>
      <path id="Path_16410" data-name="Path 16410" d="M790.284,151.8v-7.2h1.745v7.2Z" transform="translate(-753.751 -144.469)" fill="#003288"/>
      <path id="Path_16411" data-name="Path 16411" d="M804.684,151.8v-7.2h1.689l3.561,4.833V144.6h1.612v7.2H809.8l-3.507-4.737V151.8Z" transform="translate(-764.745 -144.469)" fill="#003288"/>
      <path id="Path_16412" data-name="Path 16412" d="M881.977,149.022l1.7-.133a1.639,1.639,0,0,0,.618,1.042,2.123,2.123,0,0,0,1.257.333,2.209,2.209,0,0,0,1.263-.3.846.846,0,0,0,.425-.694.591.591,0,0,0-.179-.434,1.5,1.5,0,0,0-.624-.311q-.3-.089-1.389-.317a5.2,5.2,0,0,1-1.957-.714,1.763,1.763,0,0,1-.791-1.449,1.646,1.646,0,0,1,.372-1.029,2.293,2.293,0,0,1,1.073-.729,5.052,5.052,0,0,1,1.692-.251,4.144,4.144,0,0,1,2.437.592,1.968,1.968,0,0,1,.859,1.581l-1.745.059a1.179,1.179,0,0,0-.475-.794,1.993,1.993,0,0,0-1.092-.242,2.255,2.255,0,0,0-1.176.26.5.5,0,0,0-.274.446.525.525,0,0,0,.257.436,5.163,5.163,0,0,0,1.593.482,9.549,9.549,0,0,1,1.871.521,2.305,2.305,0,0,1,.949.735,1.972,1.972,0,0,1-.069,2.318,2.418,2.418,0,0,1-1.164.807,5.726,5.726,0,0,1-1.876.264,4.235,4.235,0,0,1-2.511-.635A2.619,2.619,0,0,1,881.977,149.022Z" transform="translate(-823.75 -144.039)" fill="#003288"/>
      <path id="Path_16413" data-name="Path 16413" d="M917.884,151.8v-7.2h6.388v1.213h-4.643v1.6h4.318v1.213h-4.318v1.967h4.806V151.8Z" transform="translate(-851.161 -144.469)" fill="#003288"/>
      <path id="Path_16414" data-name="Path 16414" d="M956.383,148.712l1.686.444a3.165,3.165,0,0,1-1.294,1.761,4.206,4.206,0,0,1-2.3.575,4.111,4.111,0,0,1-2.829-.981,3.4,3.4,0,0,1-1.108-2.682,3.555,3.555,0,0,1,1.113-2.795,4.227,4.227,0,0,1,2.927-1,4.023,4.023,0,0,1,2.574.784,2.773,2.773,0,0,1,.884,1.331l-1.73.34a1.517,1.517,0,0,0-.639-.887,2.077,2.077,0,0,0-1.182-.325,2.155,2.155,0,0,0-1.559.576,2.5,2.5,0,0,0-.6,1.864,2.658,2.658,0,0,0,.592,1.948,2.1,2.1,0,0,0,1.538.58,1.967,1.967,0,0,0,1.2-.371A2.072,2.072,0,0,0,956.383,148.712Z" transform="translate(-876.092 -144.039)" fill="#003288"/>
      <path id="Path_16415" data-name="Path 16415" d="M988.572,144.6h1.745v3.907a6.822,6.822,0,0,0,.065,1.206,1.163,1.163,0,0,0,.531.711,2.115,2.115,0,0,0,1.147.268,2,2,0,0,0,1.115-.254.99.99,0,0,0,.452-.622,6.858,6.858,0,0,0,.076-1.225V144.6h1.745v3.788a8.187,8.187,0,0,1-.141,1.835,1.918,1.918,0,0,1-.521.905,2.688,2.688,0,0,1-1.015.588,5.206,5.206,0,0,1-1.659.219,5.638,5.638,0,0,1-1.874-.238,2.7,2.7,0,0,1-1.009-.62,1.888,1.888,0,0,1-.488-.8,7.37,7.37,0,0,1-.171-1.83Z" transform="translate(-905.125 -144.469)" fill="#003288"/>
      <path id="Path_16416" data-name="Path 16416" d="M1025.415,151.8v-7.2h3.657a7.413,7.413,0,0,1,2.005.194,1.941,1.941,0,0,1,1,.691,1.831,1.831,0,0,1,.375,1.136,1.756,1.756,0,0,1-.565,1.34,2.941,2.941,0,0,1-1.689.666,4,4,0,0,1,.921.6,8.413,8.413,0,0,1,.979,1.168l1.049,1.4h-2.056l-1.254-1.58a10.393,10.393,0,0,0-.92-1.046,1.388,1.388,0,0,0-.525-.3,3.48,3.48,0,0,0-.879-.08h-.354v3Zm1.745-4.155h1.283a7.852,7.852,0,0,0,1.559-.089.938.938,0,0,0,.486-.305.832.832,0,0,0,.176-.542.783.783,0,0,0-.232-.589,1.138,1.138,0,0,0-.653-.283q-.211-.024-1.266-.025h-1.354Z" transform="translate(-933.251 -144.469)" fill="#003288"/>
      <path id="Path_16417" data-name="Path 16417" d="M1061.945,151.8v-7.2h1.745v7.2Z" transform="translate(-961.137 -144.469)" fill="#003288"/>
      <path id="Path_16418" data-name="Path 16418" d="M1076.325,151.8v-5.989h-2.543V144.6h6.832v1.213h-2.543V151.8Z" transform="translate(-970.174 -144.469)" fill="#003288"/>
      <path id="Path_16419" data-name="Path 16419" d="M1107.2,151.8v-7.2h1.745v7.2Z" transform="translate(-995.689 -144.469)" fill="#003288"/>
      <path id="Path_16420" data-name="Path 16420" d="M1121.6,151.8v-7.2h6.388v1.213h-4.643v1.6h4.318v1.213h-4.318v1.967h4.806V151.8Z" transform="translate(-1006.682 -144.469)" fill="#003288"/>
      <path id="Path_16421" data-name="Path 16421" d="M1153.638,149.022l1.7-.133a1.642,1.642,0,0,0,.618,1.042,2.123,2.123,0,0,0,1.258.333,2.211,2.211,0,0,0,1.263-.3.846.846,0,0,0,.425-.694.593.593,0,0,0-.179-.434,1.5,1.5,0,0,0-.624-.311q-.3-.089-1.389-.317a5.2,5.2,0,0,1-1.957-.714,1.763,1.763,0,0,1-.791-1.449,1.646,1.646,0,0,1,.372-1.029,2.293,2.293,0,0,1,1.073-.729,5.052,5.052,0,0,1,1.692-.251,4.142,4.142,0,0,1,2.437.592,1.966,1.966,0,0,1,.859,1.581l-1.745.059a1.176,1.176,0,0,0-.474-.794,1.992,1.992,0,0,0-1.092-.242,2.259,2.259,0,0,0-1.177.26.5.5,0,0,0-.274.446.525.525,0,0,0,.258.436,5.164,5.164,0,0,0,1.593.482,9.547,9.547,0,0,1,1.871.521,2.3,2.3,0,0,1,.948.735,1.971,1.971,0,0,1-.069,2.318,2.418,2.418,0,0,1-1.164.807,5.726,5.726,0,0,1-1.876.264,4.235,4.235,0,0,1-2.511-.635A2.618,2.618,0,0,1,1153.638,149.022Z" transform="translate(-1031.136 -144.039)" fill="#003288"/>
      <path id="Path_16422" data-name="Path 16422" d="M1231.745,151.8v-7.2h1.745v7.2Z" transform="translate(-1090.763 -144.469)" fill="#003288"/>
      <path id="Path_16423" data-name="Path 16423" d="M1246.145,151.8v-7.2h1.689l3.561,4.833V144.6h1.612v7.2h-1.742l-3.507-4.737V151.8Z" transform="translate(-1101.756 -144.469)" fill="#003288"/>
      <path id="Path_16424" data-name="Path 16424" d="M1282.261,151.8l-3.085-7.2h1.888l2.186,5.324,2.1-5.324h1.854l-3.066,7.2Z" transform="translate(-1126.972 -144.469)" fill="#003288"/>
      <path id="Path_16425" data-name="Path 16425" d="M1316.9,151.8v-7.2h6.388v1.213h-4.643v1.6h4.318v1.213h-4.318v1.967h4.806V151.8Z" transform="translate(-1155.766 -144.469)" fill="#003288"/>
      <path id="Path_16426" data-name="Path 16426" d="M1348.928,149.022l1.7-.133a1.64,1.64,0,0,0,.618,1.042,2.123,2.123,0,0,0,1.257.333,2.21,2.21,0,0,0,1.263-.3.845.845,0,0,0,.425-.694.593.593,0,0,0-.178-.434,1.5,1.5,0,0,0-.624-.311q-.305-.089-1.389-.317a5.2,5.2,0,0,1-1.957-.714,1.763,1.763,0,0,1-.791-1.449,1.647,1.647,0,0,1,.372-1.029,2.292,2.292,0,0,1,1.073-.729,5.05,5.05,0,0,1,1.692-.251,4.143,4.143,0,0,1,2.437.592,1.967,1.967,0,0,1,.859,1.581l-1.745.059a1.178,1.178,0,0,0-.474-.794,1.994,1.994,0,0,0-1.092-.242,2.257,2.257,0,0,0-1.177.26.5.5,0,0,0-.274.446.525.525,0,0,0,.258.436,5.159,5.159,0,0,0,1.593.482,9.549,9.549,0,0,1,1.871.521,2.306,2.306,0,0,1,.949.735,1.972,1.972,0,0,1-.069,2.318,2.418,2.418,0,0,1-1.165.807,5.725,5.725,0,0,1-1.875.264,4.234,4.234,0,0,1-2.511-.635A2.619,2.619,0,0,1,1348.928,149.022Z" transform="translate(-1180.22 -144.039)" fill="#003288"/>
      <path id="Path_16427" data-name="Path 16427" d="M1384.817,151.8v-5.989h-2.544V144.6h6.832v1.213h-2.543V151.8Z" transform="translate(-1205.676 -144.469)" fill="#003288"/>
      <path id="Path_16428" data-name="Path 16428" d="M1415.821,151.8v-7.2h2.611l1.552,4.912,1.54-4.912h2.607v7.2h-1.612l-.007-5.669-1.7,5.669h-1.679l-1.695-5.669-.007,5.669Z" transform="translate(-1231.287 -144.469)" fill="#003288"/>
      <path id="Path_16429" data-name="Path 16429" d="M1458.371,151.8v-7.2h6.388v1.213h-4.643v1.6h4.318v1.213h-4.318v1.967h4.806V151.8Z" transform="translate(-1263.769 -144.469)" fill="#003288"/>
      <path id="Path_16430" data-name="Path 16430" d="M1492.341,151.8v-7.2h1.689l3.561,4.833V144.6h1.612v7.2h-1.742l-3.507-4.737V151.8Z" transform="translate(-1289.702 -144.469)" fill="#003288"/>
      <path id="Path_16431" data-name="Path 16431" d="M1529.1,151.8v-5.989h-2.543V144.6h6.832v1.213h-2.543V151.8Z" transform="translate(-1315.824 -144.469)" fill="#003288"/>
      <path id="Path_16432" data-name="Path 16432" d="M1607.21,148.712l1.686.444a3.166,3.166,0,0,1-1.294,1.761,4.206,4.206,0,0,1-2.3.575,4.11,4.11,0,0,1-2.829-.981,3.4,3.4,0,0,1-1.108-2.682,3.554,3.554,0,0,1,1.113-2.795,4.226,4.226,0,0,1,2.927-1,4.024,4.024,0,0,1,2.574.784,2.77,2.77,0,0,1,.883,1.331l-1.73.34a1.517,1.517,0,0,0-.639-.887,2.077,2.077,0,0,0-1.181-.325,2.155,2.155,0,0,0-1.559.576,2.5,2.5,0,0,0-.6,1.864,2.659,2.659,0,0,0,.592,1.948,2.1,2.1,0,0,0,1.538.58,1.967,1.967,0,0,0,1.2-.371A2.072,2.072,0,0,0,1607.21,148.712Z" transform="translate(-1372.934 -144.039)" fill="#003288"/>
      <path id="Path_16433" data-name="Path 16433" d="M1637.9,147.817a3.939,3.939,0,0,1,.395-1.852,3.568,3.568,0,0,1,1.919-1.64,5.557,5.557,0,0,1,1.86-.286,4.5,4.5,0,0,1,3.052.99,3.874,3.874,0,0,1,.009,5.49,4.467,4.467,0,0,1-3.037.988,4.516,4.516,0,0,1-3.061-.983A3.389,3.389,0,0,1,1637.9,147.817Zm1.789-.049a2.472,2.472,0,0,0,4.121,1.867,2.467,2.467,0,0,0,.671-1.887,2.4,2.4,0,1,0-4.791.02Z" transform="translate(-1400.821 -144.039)" fill="#003288"/>
      <path id="Path_16434" data-name="Path 16434" d="M1679.077,151.8v-7.2h1.689l3.561,4.833V144.6h1.612v7.2H1684.2l-3.507-4.737V151.8Z" transform="translate(-1432.256 -144.469)" fill="#003288"/>
      <path id="Path_16435" data-name="Path 16435" d="M1713.92,149.022l1.7-.133a1.641,1.641,0,0,0,.618,1.042,2.123,2.123,0,0,0,1.257.333,2.209,2.209,0,0,0,1.263-.3.846.846,0,0,0,.425-.694.591.591,0,0,0-.179-.434,1.5,1.5,0,0,0-.624-.311q-.305-.089-1.389-.317a5.2,5.2,0,0,1-1.957-.714,1.763,1.763,0,0,1-.791-1.449,1.644,1.644,0,0,1,.372-1.029,2.294,2.294,0,0,1,1.073-.729,5.051,5.051,0,0,1,1.692-.251,4.145,4.145,0,0,1,2.437.592,1.966,1.966,0,0,1,.859,1.581l-1.745.059a1.179,1.179,0,0,0-.474-.794,1.994,1.994,0,0,0-1.092-.242,2.256,2.256,0,0,0-1.176.26.5.5,0,0,0-.274.446.526.526,0,0,0,.258.436,5.162,5.162,0,0,0,1.593.482,9.54,9.54,0,0,1,1.871.521,2.3,2.3,0,0,1,.949.735,1.972,1.972,0,0,1-.069,2.318,2.42,2.42,0,0,1-1.165.807,5.727,5.727,0,0,1-1.876.264,4.234,4.234,0,0,1-2.511-.635A2.618,2.618,0,0,1,1713.92,149.022Z" transform="translate(-1458.855 -144.039)" fill="#003288"/>
      <path id="Path_16436" data-name="Path 16436" d="M1749.765,144.6h1.745v3.907a6.8,6.8,0,0,0,.064,1.206,1.165,1.165,0,0,0,.531.711,2.115,2.115,0,0,0,1.147.268,2,2,0,0,0,1.115-.254.991.991,0,0,0,.452-.622,6.834,6.834,0,0,0,.076-1.225V144.6h1.745v3.788a8.163,8.163,0,0,1-.141,1.835,1.915,1.915,0,0,1-.52.905,2.69,2.69,0,0,1-1.015.588,5.2,5.2,0,0,1-1.658.219,5.637,5.637,0,0,1-1.874-.238,2.7,2.7,0,0,1-1.009-.62,1.888,1.888,0,0,1-.488-.8,7.363,7.363,0,0,1-.171-1.83Z" transform="translate(-1486.219 -144.469)" fill="#003288"/>
      <path id="Path_16437" data-name="Path 16437" d="M1786.732,151.994v-7.142h1.745v5.93h4.333v1.213Z" transform="translate(-1514.44 -144.66)" fill="#003288"/>
      <path id="Path_16438" data-name="Path 16438" d="M1813.918,151.8v-5.989h-2.543V144.6h6.832v1.213h-2.543V151.8Z" transform="translate(-1533.253 -144.469)" fill="#003288"/>
      <path id="Path_16439" data-name="Path 16439" d="M1844.8,151.8v-7.2h1.745v7.2Z" transform="translate(-1558.768 -144.469)" fill="#003288"/>
      <path id="Path_16440" data-name="Path 16440" d="M1859.2,151.8v-7.2h1.689l3.561,4.833V144.6h1.612v7.2h-1.742l-3.507-4.737V151.8Z" transform="translate(-1569.76 -144.469)" fill="#003288"/>
      <path id="Path_16441" data-name="Path 16441" d="M1898.983,148.727v-1.213h3.756v2.878a4.991,4.991,0,0,1-1.587.778,6.813,6.813,0,0,1-2.105.336,5.478,5.478,0,0,1-2.362-.475,3.317,3.317,0,0,1-1.513-1.359,3.8,3.8,0,0,1-.507-1.924,3.621,3.621,0,0,1,.565-2,3.583,3.583,0,0,1,1.653-1.345,5.2,5.2,0,0,1,2.065-.36,4.745,4.745,0,0,1,2.51.562,2.53,2.53,0,0,1,1.162,1.553l-1.73.266a1.544,1.544,0,0,0-.686-.833,2.39,2.39,0,0,0-1.258-.305,2.617,2.617,0,0,0-1.818.607,2.3,2.3,0,0,0-.674,1.8,2.312,2.312,0,0,0,2.486,2.576,3.538,3.538,0,0,0,1.1-.181,4.038,4.038,0,0,0,.95-.438v-.92Z" transform="translate(-1596.836 -144.039)" fill="#003288"/>
      <path id="Path_16442" data-name="Path 16442" d="M1982.571,148.712l1.686.444a3.166,3.166,0,0,1-1.294,1.761,4.205,4.205,0,0,1-2.3.575,4.111,4.111,0,0,1-2.829-.981,3.4,3.4,0,0,1-1.108-2.682,3.554,3.554,0,0,1,1.113-2.795,4.226,4.226,0,0,1,2.927-1,4.024,4.024,0,0,1,2.574.784,2.77,2.77,0,0,1,.883,1.331l-1.73.34a1.515,1.515,0,0,0-.639-.887,2.077,2.077,0,0,0-1.182-.325,2.154,2.154,0,0,0-1.559.576,2.5,2.5,0,0,0-.6,1.864,2.659,2.659,0,0,0,.592,1.948,2.1,2.1,0,0,0,1.538.58,1.966,1.966,0,0,0,1.2-.371A2.07,2.07,0,0,0,1982.571,148.712Z" transform="translate(-1659.484 -144.039)" fill="#003288"/>
      <path id="Path_16443" data-name="Path 16443" d="M2013.261,147.817a3.936,3.936,0,0,1,.395-1.852,3.567,3.567,0,0,1,1.918-1.64,5.559,5.559,0,0,1,1.86-.286,4.5,4.5,0,0,1,3.052.99,3.873,3.873,0,0,1,.009,5.49,4.467,4.467,0,0,1-3.037.988,4.517,4.517,0,0,1-3.061-.983A3.389,3.389,0,0,1,2013.261,147.817Zm1.789-.049a2.472,2.472,0,0,0,4.121,1.867,2.467,2.467,0,0,0,.671-1.887,2.4,2.4,0,1,0-4.791.02Z" transform="translate(-1687.372 -144.039)" fill="#003288"/>
      <path id="Path_16444" data-name="Path 16444" d="M2054.314,151.8v-7.2h2.611l1.552,4.912,1.54-4.912h2.608v7.2h-1.612l-.007-5.669-1.7,5.669h-1.679l-1.694-5.669-.007,5.669Z" transform="translate(-1718.712 -144.469)" fill="#003288"/>
      <path id="Path_16445" data-name="Path 16445" d="M2096.863,151.8v-7.2h2.8a12.138,12.138,0,0,1,2.072.108,2.328,2.328,0,0,1,1.242.7,1.985,1.985,0,0,1,.5,1.4,2.028,2.028,0,0,1-.288,1.114,2.128,2.128,0,0,1-.732.709,2.777,2.777,0,0,1-.9.341,11.851,11.851,0,0,1-1.806.1h-1.135V151.8Zm1.745-5.989v2.055h.954a5.35,5.35,0,0,0,1.379-.114,1.144,1.144,0,0,0,.545-.356.864.864,0,0,0,.2-.563.852.852,0,0,0-.277-.652,1.284,1.284,0,0,0-.7-.321,9.989,9.989,0,0,0-1.255-.049Z" transform="translate(-1751.194 -144.469)" fill="#003288"/>
      <path id="Path_16446" data-name="Path 16446" d="M2131.97,151.8h-1.881l-.749-1.641h-3.469l-.72,1.641H2123.3l3.368-7.2h1.829Zm-3.2-2.854-1.2-2.662-1.167,2.662Z" transform="translate(-1771.379 -144.469)" fill="#003288"/>
      <path id="Path_16447" data-name="Path 16447" d="M2163.834,151.8v-7.2h1.689l3.561,4.833V144.6h1.611v7.2h-1.742l-3.507-4.737V151.8Z" transform="translate(-1802.32 -144.469)" fill="#003288"/>
      <path id="Path_16448" data-name="Path 16448" d="M2199.959,151.8v-3.031l-3.157-4.17h2.064l2.009,2.853,1.983-2.853h2l-3.157,4.18V151.8Z" transform="translate(-1827.487 -144.469)" fill="#003288"/>
      <path id="Path_16449" data-name="Path 16449" d="M2276.239,151.994v-7.142h1.745v5.93h4.333v1.213Z" transform="translate(-1888.129 -144.66)" fill="#003288"/>
      <path id="Path_16450" data-name="Path 16450" d="M2306.975,151.8v-7.2h1.745v7.2Z" transform="translate(-1911.594 -144.469)" fill="#003288"/>
      <path id="Path_16451" data-name="Path 16451" d="M2321.249,151.8v-7.2h2.61l1.552,4.912,1.54-4.912h2.608v7.2h-1.612l-.008-5.669-1.7,5.669h-1.68l-1.694-5.669-.007,5.669Z" transform="translate(-1922.49 -144.469)" fill="#003288"/>
      <path id="Path_16452" data-name="Path 16452" d="M2363.55,151.8v-7.2h1.745v7.2Z" transform="translate(-1954.783 -144.469)" fill="#003288"/>
      <path id="Path_16453" data-name="Path 16453" d="M2377.931,151.8v-5.989h-2.544V144.6h6.832v1.213h-2.543V151.8Z" transform="translate(-1963.819 -144.469)" fill="#003288"/>
      <path id="Path_16454" data-name="Path 16454" d="M2409.06,151.8v-7.2h6.388v1.213H2410.8v1.6h4.318v1.213H2410.8v1.967h4.806V151.8Z" transform="translate(-1989.525 -144.469)" fill="#003288"/>
      <path id="Path_16455" data-name="Path 16455" d="M2443.029,144.6h3.176a7.378,7.378,0,0,1,1.638.137,3.015,3.015,0,0,1,1.3.663,3.09,3.09,0,0,1,.822,1.167,4.514,4.514,0,0,1,.282,1.7,4.032,4.032,0,0,1-.264,1.533,3.143,3.143,0,0,1-.921,1.272,3.257,3.257,0,0,1-1.222.575,6.227,6.227,0,0,1-1.538.152h-3.271Zm1.745,1.213v4.776h1.3a5.627,5.627,0,0,0,1.051-.069,1.733,1.733,0,0,0,.7-.3,1.484,1.484,0,0,0,.456-.7,3.991,3.991,0,0,0,.176-1.321,3.66,3.66,0,0,0-.176-1.284,1.628,1.628,0,0,0-.494-.7,1.79,1.79,0,0,0-.8-.339,9.4,9.4,0,0,0-1.427-.069Z" transform="translate(-2015.457 -144.469)" fill="#003288"/>
    </g>
    <path id="Path_16456" data-name="Path 16456" d="M362.856,54.738h26.015l5.407-9.364H368.264ZM374.1,35.812,368.689,44.4h35.377l5.407-8.585ZM356.813,65.469h11.445l5.407-9.365H362.22Z" transform="translate(0 -6.771)" fill="#d4000b"/>
  </g>
</svg>
